<svg width="196" height="196" xmlns="http://www.w3.org/2000/svg"><path d="M98.096 183.176c-46.989 0-85.08-38.092-85.08-85.08 0-46.989 38.091-85.08 85.08-85.08 46.988 0 85.08 38.091 85.08 85.08 0 46.988-38.092 85.08-85.08 85.08zm0-17.035c37.58 0 68.045-30.465 68.045-68.045S135.676 30.05 98.096 30.05 30.05 60.516 30.05 98.096s30.465 68.045 68.045 68.045zm.095-16.844c-28.224 0-51.105-22.88-51.105-51.106 0-28.224 22.88-51.105 51.105-51.105 28.225 0 51.106 22.88 51.106 51.105 0 28.225-22.88 51.106-51.106 51.106zm-.287-17.418c18.764 0 33.975-15.211 33.975-33.975 0-18.763-15.211-33.974-33.975-33.974-18.763 0-33.974 15.21-33.974 33.974 0 18.764 15.21 33.975 33.974 33.975zM98 115.035c-9.408 0-17.035-7.627-17.035-17.035 0-9.408 7.627-17.035 17.035-17.035 9.408 0 17.035 7.627 17.035 17.035 0 9.408-7.627 17.035-17.035 17.035z" fill="#000" fill-rule="evenodd"/></svg>